<?xml version="1.0" encoding="UTF-8"?>
<svg version="1.1" xmlns="http://www.w3.org/2000/svg" width="159" height="27">
<path d="M0 0 C3.6421325 4.22957323 3 5.90747741 3 12 C-4.59 12 -12.18 12 -20 12 C-18.5 16 -18.5 16 -16 17 C-10.47123522 17.3566945 -8.36951825 17.38285284 -4 14 C-0.25 13.8125 -0.25 13.8125 3 14 C2.70540991 17.53508103 2.25118587 18.76203444 -0.375 21.25 C-5.59621308 24.73080872 -10.91457332 24.59774996 -17 24 C-21.18429138 22.74402999 -24.09864115 21.0140287 -27 17.75 C-28.72130984 13.01639793 -28.81869974 8.89593625 -26.8125 4.25 C-19.88386664 -4.3510621 -9.39367013 -5.44832867 0 0 Z M-19 5 C-19.33 5.99 -19.66 6.98 -20 8 C-14.72 8 -9.44 8 -4 8 C-5.5 4 -5.5 4 -8 3 C-13.8446238 2.62556395 -13.8446238 2.62556395 -19 5 Z " fill="#FFFFFF" transform="translate(61,3)"/>
<path d="M0 0 C2.625 1.6875 2.625 1.6875 4.625 4.6875 C4.625 6.0075 4.625 7.3275 4.625 8.6875 C1.25 8.875 1.25 8.875 -2.375 8.6875 C-3.035 7.6975 -3.695 6.7075 -4.375 5.6875 C-7.95857241 5.43734127 -7.95857241 5.43734127 -11.375 5.6875 C-11.375 6.6775 -11.375 7.6675 -11.375 8.6875 C-10.63894531 8.79707031 -9.90289062 8.90664062 -9.14453125 9.01953125 C1.47179538 10.74450903 1.47179538 10.74450903 4.625 13.6875 C5.6875 16.5625 5.6875 16.5625 5.625 19.6875 C3.52471854 23.06295234 2.42297116 24.42150961 -1.375 25.6875 C-7.31477698 26.21911515 -12.34548951 26.24495864 -17.375 22.6875 C-19.3125 20.125 -19.3125 20.125 -20.375 17.6875 C-20.045 17.0275 -19.715 16.3675 -19.375 15.6875 C-16.5625 15.5 -16.5625 15.5 -13.375 15.6875 C-12.900625 16.1825 -12.42625 16.6775 -11.9375 17.1875 C-10.29160308 19.09533642 -10.29160308 19.09533642 -6.6875 18.875 C-5.594375 18.813125 -4.50125 18.75125 -3.375 18.6875 C-3.045 17.6975 -2.715 16.7075 -2.375 15.6875 C-3.18324219 15.60113281 -3.99148437 15.51476562 -4.82421875 15.42578125 C-14.65354607 14.13338477 -14.65354607 14.13338477 -17.6875 11.4375 C-19.375 8.6875 -19.375 8.6875 -19.4375 5.5625 C-18.23714717 2.31448645 -17.35871185 1.35486839 -14.375 -0.3125 C-9.24710557 -2.02179814 -4.96255111 -1.92988099 0 0 Z " fill="#FFFFFF" transform="translate(153.375,1.3125)"/>
<path d="M0 0 C2.31 0 4.62 0 7 0 C7.04898438 1.12019531 7.09796875 2.24039063 7.1484375 3.39453125 C7.22347856 4.86721203 7.29902582 6.33986707 7.375 7.8125 C7.4059375 8.55048828 7.436875 9.28847656 7.46875 10.04882812 C7.67346148 13.81893115 7.86433827 15.79650741 10 19 C13.63084346 19.56479787 15.46075263 19.31416329 18.6484375 17.45703125 C21.7314782 14.23571464 21.77635702 11.49880775 21.8125 7.25 C21.83763672 6.55261719 21.86277344 5.85523438 21.88867188 5.13671875 C21.94728962 3.42508051 21.97657053 1.7124814 22 0 C24.31 0 26.62 0 29 0 C29 8.25 29 16.5 29 25 C26.69 25 24.38 25 22 25 C21.67 24.01 21.34 23.02 21 22 C20.175 22.66 19.35 23.32 18.5 24 C14.74524751 26.47955353 11.3922888 26.89068282 7 26 C1.5 23 1.5 23 0 20 C-0.08372659 18.47851674 -0.10730027 16.95344222 -0.09765625 15.4296875 C-0.09443359 14.53378906 -0.09121094 13.63789063 -0.08789062 12.71484375 C-0.07951172 11.77769531 -0.07113281 10.84054687 -0.0625 9.875 C-0.05798828 8.93011719 -0.05347656 7.98523438 -0.04882812 7.01171875 C-0.03702357 4.67441613 -0.02055759 2.33723939 0 0 Z " fill="#FFFFFF" transform="translate(100,1)"/>
<path d="M0 0 C0.75023438 0.04382812 1.50046875 0.08765625 2.2734375 0.1328125 C5.93952996 1.28988487 7.37179943 2.75366612 9.625 5.875 C10.22289162 9.33655569 10.0982476 12.68814836 9.9375 16.1875 C9.91494141 17.11884766 9.89238281 18.05019531 9.86914062 19.00976562 C9.81042078 21.2998396 9.72836858 23.58657875 9.625 25.875 C7.315 25.875 5.005 25.875 2.625 25.875 C2.58761719 24.75480469 2.55023437 23.63460938 2.51171875 22.48046875 C2.44605743 21.0077791 2.37961014 19.53512434 2.3125 18.0625 C2.28994141 17.32451172 2.26738281 16.58652344 2.24414062 15.82617188 C2.04335315 11.61154752 2.04335315 11.61154752 0.30078125 7.8515625 C-2.62349964 6.14743611 -5.21589439 7.1416362 -8.375 7.875 C-9.365 8.535 -10.355 9.195 -11.375 9.875 C-11.75894667 12.64762255 -11.97842248 15.21823528 -12.0625 18 C-12.09666016 18.75410156 -12.13082031 19.50820313 -12.16601562 20.28515625 C-12.24854278 22.14791201 -12.31344711 24.01143326 -12.375 25.875 C-14.685 25.875 -16.995 25.875 -19.375 25.875 C-19.375 17.625 -19.375 9.375 -19.375 0.875 C-17.065 0.875 -14.755 0.875 -12.375 0.875 C-12.045 1.865 -11.715 2.855 -11.375 3.875 C-10.776875 3.400625 -10.17875 2.92625 -9.5625 2.4375 C-6.3176256 0.11973257 -3.87752064 -0.30437875 0 0 Z " fill="#FFFFFF" transform="translate(19.375,0.125)"/>
<path d="M0 0 C4.29393328 -0.6261986 7.64829573 -0.88559935 11.37890625 1.55859375 C13.34223246 3.30416285 15.20490915 5.08262775 17 7 C17.268125 6.401875 17.53625 5.80375 17.8125 5.1875 C19.03297253 2.93926114 19.96150897 1.54199673 22 0 C24.26171875 -0.29296875 24.26171875 -0.29296875 26.6875 -0.1875 C27.89986328 -0.14689453 27.89986328 -0.14689453 29.13671875 -0.10546875 C29.75160156 -0.07066406 30.36648437 -0.03585938 31 0 C30.61328125 0.43570313 30.2265625 0.87140625 29.828125 1.3203125 C29.30734375 1.91585938 28.7865625 2.51140625 28.25 3.125 C27.73953125 3.70507812 27.2290625 4.28515625 26.703125 4.8828125 C24.61750646 7.47548509 22.81554317 10.21353592 21 13 C21.7940625 13.78246094 22.588125 14.56492187 23.40625 15.37109375 C24.43763021 16.39309778 25.46887316 17.41524034 26.5 18.4375 C27.02464844 18.95376953 27.54929687 19.47003906 28.08984375 20.00195312 C29.41224552 21.31576787 30.70835568 22.65593505 32 24 C32 24.33 32 24.66 32 25 C28.57104524 25.4269252 25.41370549 25.60451035 22 25 C19.44266598 23.00707759 17.71645338 20.73516149 16 18 C15.59910156 18.5053125 15.19820312 19.010625 14.78515625 19.53125 C10.19725314 24.77456784 10.19725314 24.77456784 6.53125 25.46484375 C4.31614672 25.44030938 2.19200545 25.31314364 0 25 C0.38671875 24.56429688 0.7734375 24.12859375 1.171875 23.6796875 C4.43984501 19.94255348 7.34140589 16.1923984 10 12 C9.04287109 10.95199219 9.04287109 10.95199219 8.06640625 9.8828125 C7.24011719 8.97273437 6.41382812 8.06265625 5.5625 7.125 C4.73878906 6.22007812 3.91507812 5.31515625 3.06640625 4.3828125 C1 2 1 2 0 0 Z " fill="#FFFFFF" transform="translate(65,1)"/>
</svg>
